<svg width="101" height="40" viewBox="0 0 101 40" fill="none" xmlns="http://www.w3.org/2000/svg">
<path d="M73.7244 35.4386C70.2303 35.4386 67.4027 34.3945 65.2417 32.3063C63.0807 30.204 62.0002 27.4738 62.0002 24.1157V23.5231C62.0002 21.1808 62.4282 19.1138 63.2842 17.3218C64.1542 15.53 65.4171 14.1472 67.0729 13.1737C68.7288 12.186 70.6934 11.6921 72.9666 11.6921C76.166 11.6921 78.6919 12.6939 80.5441 14.6975C82.396 16.6869 83.3229 19.4665 83.3229 23.0362V25.8088H69.2199C69.4725 27.0928 70.0268 28.1016 70.8828 28.8353C71.7387 29.569 72.8473 29.9358 74.2085 29.9358C76.4537 29.9358 78.2078 29.1458 79.4707 27.5654L82.7125 31.4174C81.8281 32.6449 80.5722 33.6255 78.9445 34.3593C77.3307 35.0788 75.5907 35.4386 73.7244 35.4386ZM72.9246 17.1949C70.8477 17.1949 69.6128 18.5776 69.2199 21.3431H76.3765V20.7929C76.4046 19.65 76.1169 18.7681 75.5135 18.1473C74.9101 17.5124 74.0471 17.1949 72.9246 17.1949ZM99.972 18.5706L97.6355 18.4013C95.4043 18.4013 93.9731 19.1068 93.342 20.5177V35.0153H86.2482V12.1154H92.8997L93.1316 15.0573C94.324 12.8138 95.9871 11.6921 98.1201 11.6921C98.8779 11.6921 99.5375 11.7768 100.099 11.9461L99.972 18.5706Z" fill="black"/>
<mask id="mask0_960_2037" style="mask-type:alpha" maskUnits="userSpaceOnUse" x="1" y="19" width="56" height="17">
<path d="M56.7369 19.339L1.11162 24.7124L1.11201 35.521L56.7373 35.521L56.7369 19.339Z" fill="#C4C4C4"/>
</mask>
<g mask="url(#mask0_960_2037)">
<path d="M61.5782 7.70803V2.50667C49.9391 0.339466 49.5081 7.99705 49.5081 12.0425V35.0152H56.8364V12.0425C56.8364 7.70803 59.5666 7.4191 61.5782 7.70803Z" fill="black"/>
<path d="M46.059 7.70803V2.50667C34.4198 0.339466 33.9888 7.99705 33.9888 12.0425V35.0152H41.3171V12.0425C41.3171 7.70803 44.0473 7.4191 46.059 7.70803Z" fill="black"/>
<path d="M28.6335 20.2425C28.6335 23.2478 28.0792 25.9076 26.9707 28.2215C25.8621 30.5355 24.2834 32.3203 22.2347 33.5761C20.2 34.8178 17.8776 35.4385 15.2676 35.4385C12.6575 35.4385 10.3422 34.8389 8.32144 33.6396C6.3008 32.4262 4.7221 30.6978 3.58548 28.4543C2.46288 26.2109 1.87351 23.6359 1.81738 20.7293V18.9938C1.81738 15.9743 2.36465 13.3147 3.45919 11.0148C4.56775 8.70083 6.14639 6.91598 8.19513 5.6602C10.2579 4.4045 12.6014 3.77661 15.2254 3.77661C17.8215 3.77661 20.1368 4.39739 22.1716 5.63905C24.2063 6.8807 25.7849 8.65151 26.9075 10.9513C28.0441 13.2371 28.6195 15.8615 28.6335 18.8245V20.2425ZM21.1191 18.9515C21.1191 15.8897 20.6069 13.5687 19.5825 11.9884C18.5722 10.394 17.1198 9.59677 15.2254 9.59677C11.5209 9.59677 9.56329 12.3905 9.35284 17.9779L9.3318 20.2425C9.3318 23.262 9.82995 25.583 10.8263 27.2056C11.8226 28.8282 13.303 29.6395 15.2676 29.6395C17.1339 29.6395 18.5722 28.8423 19.5825 27.248C20.5929 25.6536 21.1051 23.3607 21.1191 20.3695V18.9515Z" fill="black"/>
</g>
<mask id="mask1_960_2037" style="mask-type:alpha" maskUnits="userSpaceOnUse" x="1" y="0" width="61" height="20">
<path d="M61.7936 0.628526L1.11081 4.67402L1.11159 19.3391L61.7942 14.7878L61.7936 0.628526Z" fill="#F74F2A"/>
</mask>
<g mask="url(#mask1_960_2037)">
<path d="M61.5782 7.70803V2.50667C49.9391 0.339466 49.5081 7.99705 49.5081 12.0425V35.0152H56.8364V12.0425C56.8364 7.70803 59.5666 7.4191 61.5782 7.70803Z" fill="#F74F2A"/>
<path d="M46.059 7.70803V2.50667C34.4198 0.339466 33.9888 7.99705 33.9888 12.0425V35.0152H41.3171V12.0425C41.3171 7.70803 44.0473 7.4191 46.059 7.70803Z" fill="#F74F2A"/>
<path d="M28.6335 20.2425C28.6335 23.2478 28.0792 25.9076 26.9707 28.2215C25.8621 30.5355 24.2834 32.3203 22.2347 33.5761C20.2 34.8178 17.8776 35.4385 15.2676 35.4385C12.6575 35.4385 10.3422 34.8389 8.32144 33.6396C6.3008 32.4262 4.7221 30.6978 3.58548 28.4543C2.46288 26.2109 1.87351 23.6359 1.81738 20.7293V18.9938C1.81738 15.9743 2.36465 13.3147 3.45919 11.0148C4.56775 8.70083 6.14639 6.91598 8.19513 5.6602C10.2579 4.4045 12.6014 3.77661 15.2254 3.77661C17.8215 3.77661 20.1368 4.39739 22.1716 5.63905C24.2063 6.8807 25.7849 8.65151 26.9075 10.9513C28.0441 13.2371 28.6195 15.8615 28.6335 18.8245V20.2425ZM21.1191 18.9515C21.1191 15.8897 20.6069 13.5687 19.5825 11.9884C18.5722 10.394 17.1198 9.59677 15.2254 9.59677C11.5209 9.59677 9.56329 12.3905 9.35284 17.9779L9.3318 20.2425C9.3318 23.262 9.82995 25.583 10.8263 27.2056C11.8226 28.8282 13.303 29.6395 15.2676 29.6395C17.1339 29.6395 18.5722 28.8423 19.5825 27.248C20.5929 25.6536 21.1051 23.3607 21.1191 20.3695V18.9515Z" fill="#F74F2A"/>
</g>
</svg>
