<svg width="42" height="40" viewBox="0 0 42 39" fill="none" xmlns="http://www.w3.org/2000/svg">
<path d="M33.75 0L24.375 9.375V30L33.75 21.5625V0ZM0 9.375V36.8438C0 37.3125 0.46875 37.7812 0.9375 37.7812C1.125 37.7812 1.21875 37.6875 1.40625 37.6875C3.9375 36.4688 7.59375 35.625 10.3125 35.625C13.9688 35.625 17.9062 36.375 20.625 38.4375V9.375C17.9062 7.3125 13.9688 6.5625 10.3125 6.5625C6.65625 6.5625 2.71875 7.3125 0 9.375ZM41.25 34.6875V9.375C40.125 8.53125 38.9062 7.96875 37.5 7.5V32.8125C35.4375 32.1562 33.1875 31.875 30.9375 31.875C27.75 31.875 23.1562 33.0938 20.625 34.6875V38.4375C23.1562 36.8438 27.75 35.625 30.9375 35.625C34.0312 35.625 37.2188 36.1875 39.8438 37.5938C40.0312 37.6875 40.125 37.6875 40.3125 37.6875C40.7812 37.6875 41.25 37.2188 41.25 36.75V34.6875Z" fill="#F74F2A"/>
</svg>
