<svg width="30" height="40" viewBox="0 0 30 38" fill="none" xmlns="http://www.w3.org/2000/svg">
<path d="M26.25 2.25H24.75V3.75V7.5C24.75 7.70282 24.5778 7.875 24.375 7.875H9.375C9.17218 7.875 9 7.70282 9 7.5V3.75V2.25H7.5H3.75H2.25V3.75V33.75V35.25H3.75H11.3062H15.826L12.2031 32.5476C10.2671 31.1036 9 28.8175 9 26.25V18.375H24.75V26.25C24.75 28.8228 23.4974 31.1045 21.5516 32.5441L17.8942 35.25H22.4438H28.5V36H3.75C2.51593 36 1.5 34.9841 1.5 33.75V3.75C1.5 2.51593 2.51593 1.5 3.75 1.5H28.5V2.25H26.25Z" fill="#F74F2A" stroke="#F74F2A" stroke-width="3"/>
<path d="M17.25 13.125C17.25 13.3321 17.0821 13.5 16.875 13.5C16.6679 13.5 16.5 13.3321 16.5 13.125C16.5 12.9179 16.6679 12.75 16.875 12.75C17.0821 12.75 17.25 12.9179 17.25 13.125Z" fill="#F74F2A" stroke="#F74F2A" stroke-width="3"/>
</svg>
