<svg width="40" height="40" viewBox="0 0 40 38" fill="none" xmlns="http://www.w3.org/2000/svg">
<path d="M7.5 16.875H0V37.5H7.5V16.875Z" fill="#F74F2A"/>
<path d="M28.125 2.34375C29.3438 0.91875 31.2375 0 33.1875 0C36.6563 0 39.375 2.71875 39.375 6.1875C39.375 10.4438 33.9188 15.375 28.125 20.625C22.3313 15.3562 16.875 10.425 16.875 6.1875C16.875 2.71875 19.5938 0 23.0625 0C25.0125 0 26.9062 0.91875 28.125 2.34375Z" fill="#F74F2A"/>
<path d="M35.625 28.125H22.5L18.5812 26.7563L19.2 24.9937L22.5 26.25H27.7875C29.0062 26.25 30 25.2562 30 24.0375C30 23.1187 29.4187 22.2938 28.5562 21.9563L14.9438 16.875H11.25V33.7875L24.375 37.5L39.3938 31.875C39.375 29.8125 37.7062 28.125 35.625 28.125Z" fill="#F74F2A"/>
</svg>
