<svg width="38" height="40" viewBox="0 0 38 37" fill="none" xmlns="http://www.w3.org/2000/svg">
<path d="M5 17C7.76142 17 10 15.2091 10 13C10 10.7909 7.76142 9 5 9C2.23858 9 0 10.7909 0 13C0 15.2091 2.23858 17 5 17Z" fill="#F74F2A"/>
<path d="M13.5 10C15.9853 10 18 7.76142 18 5C18 2.23858 15.9853 0 13.5 0C11.0147 0 9 2.23858 9 5C9 7.76142 11.0147 10 13.5 10Z" fill="#F74F2A"/>
<path d="M23.5 10C25.9853 10 28 7.76142 28 5C28 2.23858 25.9853 0 23.5 0C21.0147 0 19 2.23858 19 5C19 7.76142 21.0147 10 23.5 10Z" fill="#F74F2A"/>
<path d="M32.5625 17.5C35.1513 17.5 37.25 15.4013 37.25 12.8125C37.25 10.2237 35.1513 8.125 32.5625 8.125C29.9737 8.125 27.875 10.2237 27.875 12.8125C27.875 15.4013 29.9737 17.5 32.5625 17.5Z" fill="#F74F2A"/>
<path d="M28.512 22.8625C26.8807 20.95 25.512 19.3187 23.862 17.4062C22.9995 16.3937 21.8932 15.3813 20.5807 14.9313C20.3745 14.8563 20.1682 14.8 19.962 14.7625C19.4932 14.6875 18.987 14.6875 18.4995 14.6875C18.012 14.6875 17.5057 14.6875 17.0182 14.7813C16.812 14.8188 16.6057 14.875 16.3995 14.95C15.087 15.4 13.9995 16.4125 13.1182 17.425C11.487 19.3375 10.1182 20.9687 8.46823 22.8812C6.01198 25.3375 2.99323 28.0562 3.55573 31.8625C4.09948 33.775 5.46823 35.6687 7.92448 36.2125C9.29323 36.4937 13.662 35.3875 18.312 35.3875H18.6495C23.2995 35.3875 27.6682 36.475 29.037 36.2125C31.4932 35.6687 32.862 33.7562 33.4057 31.8625C33.987 28.0375 30.9682 25.3187 28.512 22.8625Z" fill="#F74F2A"/>
</svg>
