<svg width="45" height="40" viewBox="0 0 45 30" fill="none" xmlns="http://www.w3.org/2000/svg">
<path d="M34.0875 11.25L30.9 2.475C30.3562 0.99375 28.95 0 27.375 0H22.5V3.75H27.375L30.1125 11.25H21.0938L20.4188 9.375H22.5V5.625H13.125V9.375H16.4062L19.8187 18.75H18.5625C17.7375 14.5687 14.2312 11.475 9.84375 11.2688C4.59375 11.0063 0 15.375 0 20.625C0 25.875 4.125 30 9.375 30C13.9875 30 17.7187 26.8312 18.5625 22.5H26.4375C27.2625 26.6813 30.7688 29.775 35.1562 29.9812C40.4062 30.225 45 25.875 45 20.6062C45 15.3562 40.875 11.2312 35.625 11.2312H34.0875V11.25ZM14.6625 22.5C13.9125 24.6937 11.8688 26.25 9.375 26.25C6.225 26.25 3.75 23.775 3.75 20.625C3.75 17.475 6.225 15 9.375 15C11.8688 15 13.9125 16.5563 14.6625 18.75H9.375V22.5H14.6625ZM26.4375 18.75H23.8125L22.4438 15H28.125C27.3 16.0875 26.7 17.3438 26.4375 18.75ZM35.625 26.25C32.475 26.25 30 23.775 30 20.625C30 18.8812 30.7687 17.3813 31.9687 16.35L33.7688 21.3L37.2937 20.025L35.475 15.0188C35.5313 15.0188 35.5875 15 35.6438 15C38.7938 15 41.2688 17.475 41.2688 20.625C41.2688 23.775 38.775 26.25 35.625 26.25Z" fill="#F74F2A"/>
</svg>
