<svg width="14" height="14" viewBox="0 0 14 14" fill="none" xmlns="http://www.w3.org/2000/svg">
<path d="M0.710972 0.71146C0.798058 0.624154 0.901512 0.554886 1.01541 0.507624C1.12931 0.460362 1.25141 0.436035 1.37472 0.436035C1.49804 0.436035 1.62014 0.460362 1.73404 0.507624C1.84793 0.554886 1.95139 0.624154 2.03847 0.71146L6.99972 5.67458L11.961 0.71146C12.0481 0.624296 12.1516 0.555152 12.2655 0.507979C12.3794 0.460806 12.5014 0.436526 12.6247 0.436526C12.748 0.436526 12.8701 0.460806 12.9839 0.507979C13.0978 0.555152 13.2013 0.624296 13.2885 0.71146C13.3756 0.798625 13.4448 0.902105 13.492 1.01599C13.5391 1.12988 13.5634 1.25194 13.5634 1.37521C13.5634 1.49848 13.5391 1.62054 13.492 1.73443C13.4448 1.84832 13.3756 1.9518 13.2885 2.03896L8.32534 7.00021L13.2885 11.9615C13.3756 12.0486 13.4448 12.1521 13.492 12.266C13.5391 12.3799 13.5634 12.5019 13.5634 12.6252C13.5634 12.7485 13.5391 12.8705 13.492 12.9844C13.4448 13.0983 13.3756 13.2018 13.2885 13.289C13.2013 13.3761 13.0978 13.4453 12.9839 13.4924C12.8701 13.5396 12.748 13.5639 12.6247 13.5639C12.5014 13.5639 12.3794 13.5396 12.2655 13.4924C12.1516 13.4453 12.0481 13.3761 11.961 13.289L6.99972 8.32583L2.03847 13.289C1.95131 13.3761 1.84783 13.4453 1.73394 13.4924C1.62005 13.5396 1.49799 13.5639 1.37472 13.5639C1.25145 13.5639 1.12939 13.5396 1.0155 13.4924C0.901616 13.4453 0.798137 13.3761 0.710972 13.289C0.623807 13.2018 0.554664 13.0983 0.507491 12.9844C0.460318 12.8705 0.436038 12.7485 0.436038 12.6252C0.436038 12.5019 0.460318 12.3799 0.507491 12.266C0.554664 12.1521 0.623807 12.0486 0.710972 11.9615L5.6741 7.00021L0.710972 2.03896C0.623666 1.95187 0.554398 1.84842 0.507136 1.73452C0.459874 1.62063 0.435547 1.49852 0.435547 1.37521C0.435547 1.2519 0.459874 1.12979 0.507136 1.0159C0.554398 0.902 0.623666 0.798546 0.710972 0.71146Z" fill="#888888"/>
</svg>
