<svg width="15" height="15" viewBox="0 0 15 15" fill="none" xmlns="http://www.w3.org/2000/svg">
<path d="M7.5 2.5C7.15482 2.5 6.875 2.77982 6.875 3.125C6.875 4.18266 5.59624 4.71234 4.84836 3.96446C4.60429 3.72038 4.20856 3.72038 3.96448 3.96446C3.7204 4.20854 3.7204 4.60427 3.96448 4.84834C4.71239 5.59625 4.18264 6.875 3.125 6.875C2.77982 6.875 2.5 7.15482 2.5 7.5C2.5 7.84518 2.77982 8.125 3.125 8.125C4.18273 8.125 4.71228 9.40382 3.96444 10.1517C3.72036 10.3957 3.72036 10.7915 3.96444 11.0355C4.20852 11.2796 4.60425 11.2796 4.84832 11.0355C5.59619 10.2877 6.875 10.8173 6.875 11.875C6.875 12.2202 7.15482 12.5 7.5 12.5C7.84518 12.5 8.125 12.2202 8.125 11.875C8.125 10.8173 9.40378 10.2876 10.1517 11.0355C10.3957 11.2796 10.7915 11.2796 11.0355 11.0355C11.2796 10.7915 11.2796 10.3957 11.0355 10.1516C10.2877 9.40379 10.8173 8.125 11.875 8.125C12.2202 8.125 12.5 7.84518 12.5 7.5C12.5 7.15482 12.2202 6.875 11.875 6.875C10.8174 6.875 10.2876 5.59628 11.0355 4.84835C11.2796 4.60428 11.2796 4.20855 11.0355 3.96447C10.7914 3.72039 10.3957 3.72039 10.1516 3.96447C9.40373 4.71237 8.125 4.18262 8.125 3.125C8.125 2.77982 7.84518 2.5 7.5 2.5ZM5.6301 2.98564C5.7014 2.01519 6.51134 1.25 7.5 1.25C8.48866 1.25 9.2986 2.01519 9.3699 2.98564C10.1065 2.34985 11.2203 2.3815 11.9194 3.08059C12.6185 3.77968 12.6501 4.89347 12.0143 5.6301C12.9848 5.70138 13.75 6.51133 13.75 7.5C13.75 8.48866 12.9848 9.2986 12.0144 9.3699C12.6502 10.1065 12.6185 11.2203 11.9194 11.9194C11.2203 12.6185 10.1065 12.6501 9.3699 12.0143C9.29862 12.9848 8.48867 13.75 7.5 13.75C6.51133 13.75 5.70138 12.9848 5.6301 12.0143C4.89347 12.6502 3.77966 12.6185 3.08056 11.9194C2.38146 11.2203 2.34982 10.1065 2.98564 9.3699C2.01519 9.2986 1.25 8.48866 1.25 7.5C1.25 6.51133 2.01521 5.70138 2.98568 5.6301C2.34986 4.89347 2.3815 3.77967 3.0806 3.08058C3.77969 2.38149 4.89347 2.34984 5.6301 2.98564Z" fill="#CCCCCC"/>
<path d="M7.5 6.25C7.16848 6.25 6.85054 6.3817 6.61612 6.61612C6.3817 6.85054 6.25 7.16848 6.25 7.5C6.25 7.83152 6.3817 8.14946 6.61612 8.38388C6.85054 8.6183 7.16848 8.75 7.5 8.75C7.83152 8.75 8.14946 8.6183 8.38388 8.38388C8.6183 8.14946 8.75 7.83152 8.75 7.5C8.75 7.16848 8.6183 6.85054 8.38388 6.61612C8.14946 6.3817 7.83152 6.25 7.5 6.25ZM5.73223 5.73223C6.20107 5.26339 6.83696 5 7.5 5C8.16304 5 8.79893 5.26339 9.26777 5.73223C9.73661 6.20107 10 6.83696 10 7.5C10 8.16304 9.73661 8.79893 9.26777 9.26777C8.79893 9.73661 8.16304 10 7.5 10C6.83696 10 6.20107 9.73661 5.73223 9.26777C5.26339 8.79893 5 8.16304 5 7.5C5 6.83696 5.26339 6.20107 5.73223 5.73223Z" fill="#CCCCCC"/>
</svg>
