<svg width="24" height="24" viewBox="0 0 24 24" fill="none" xmlns="http://www.w3.org/2000/svg">
<path d="M13.7071 16.7071C14.0976 16.3166 14.0976 15.6834 13.7071 15.2929C13.3166 14.9024 12.6834 14.9024 12.2929 15.2929L13.7071 16.7071ZM10 19L9.29289 18.2929L8.5293 19.0565L9.34921 19.7593L10 19ZM12.8492 22.7593C13.2685 23.1187 13.8998 23.0701 14.2593 22.6508C14.6187 22.2315 14.5701 21.6002 14.1508 21.2407L12.8492 22.7593ZM12.2929 15.2929L9.29289 18.2929L10.7071 19.7071L13.7071 16.7071L12.2929 15.2929ZM9.34921 19.7593L12.8492 22.7593L14.1508 21.2407L10.6508 18.2407L9.34921 19.7593Z" fill="#CCCCCC"/>
<path d="M18.0622 8.5C18.7138 9.62862 19.0374 10.9167 18.9966 12.2193C18.9557 13.5219 18.5521 14.7872 17.8311 15.8728C17.11 16.9584 16.1003 17.8212 14.9155 18.364C13.7307 18.9067 12.4179 19.108 11.1249 18.9451" stroke="#CCCCCC" stroke-width="2" stroke-linecap="round"/>
<path d="M10.2929 7.29289C9.90237 7.68342 9.90237 8.31658 10.2929 8.70711C10.6834 9.09763 11.3166 9.09763 11.7071 8.70711L10.2929 7.29289ZM14 5L14.7071 5.70711L15.3619 5.0523L14.7593 4.34921L14 5ZM11.7593 0.849209C11.3998 0.429883 10.7685 0.381321 10.3492 0.740743C9.92988 1.10017 9.88132 1.73147 10.2407 2.15079L11.7593 0.849209ZM11.7071 8.70711L14.7071 5.70711L13.2929 4.29289L10.2929 7.29289L11.7071 8.70711ZM14.7593 4.34921L11.7593 0.849209L10.2407 2.15079L13.2407 5.65079L14.7593 4.34921Z" fill="#CCCCCC"/>
<path d="M5.93782 15.5C5.27676 14.355 4.95347 13.0462 5.0054 11.7251C5.05733 10.404 5.48234 9.12457 6.23124 8.03498C6.98013 6.9454 8.02229 6.09019 9.23708 5.56834C10.4519 5.04649 11.7896 4.87934 13.0955 5.08625" stroke="#CCCCCC" stroke-width="2" stroke-linecap="round" stroke-linejoin="round"/>
</svg>
