<svg width="30" height="30" viewBox="0 0 30 30" fill="none" xmlns="http://www.w3.org/2000/svg">
<circle cx="15" cy="15" r="15" fill="white" fill-opacity="0.5"/>
<path d="M8.70857 16.5902L14.5024 22.0329L14.5024 22.0329C14.6476 22.1692 14.7201 22.2374 14.7991 22.2719C14.9269 22.328 15.0724 22.328 15.2003 22.2719C15.2792 22.2374 15.3518 22.1692 15.4969 22.0329L21.2908 16.5902C22.9209 15.0588 23.1189 12.5388 21.7478 10.7717L21.4901 10.4394C19.8499 8.32546 16.5577 8.67999 15.4052 11.0947C15.2424 11.4358 14.7569 11.4358 14.5941 11.0947C13.4416 8.67999 10.1494 8.32546 8.50929 10.4394L8.2515 10.7717C6.88046 12.5388 7.07842 15.0588 8.70857 16.5902Z" stroke="#888888"/>
</svg>
