<svg width="15" height="13" viewBox="0 0 15 13" fill="none" xmlns="http://www.w3.org/2000/svg">
<path d="M9.31714 1.71004L10.6086 3.03922H13.4666V11.0143H2.17554V3.03922H5.03359L6.32501 1.71004H9.31714ZM9.93814 0.380859H5.704L4.41258 1.71004H2.17554C1.39928 1.71004 0.76416 2.30817 0.76416 3.03922V11.0143C0.76416 11.7453 1.39928 12.3435 2.17554 12.3435H13.4666C14.2429 12.3435 14.878 11.7453 14.878 11.0143V3.03922C14.878 2.30817 14.2429 1.71004 13.4666 1.71004H11.2296L9.93814 0.380859ZM7.82107 5.03298C8.98546 5.03298 9.93814 5.93018 9.93814 7.02675C9.93814 8.12332 8.98546 9.02052 7.82107 9.02052C6.65668 9.02052 5.704 8.12332 5.704 7.02675C5.704 5.93018 6.65668 5.03298 7.82107 5.03298ZM7.82107 3.7038C5.87336 3.7038 4.29262 5.19248 4.29262 7.02675C4.29262 8.86102 5.87336 10.3497 7.82107 10.3497C9.76878 10.3497 11.3495 8.86102 11.3495 7.02675C11.3495 5.19248 9.76878 3.7038 7.82107 3.7038Z" fill="white"/>
</svg>
