<svg width="80" height="106" viewBox="0 0 80 106" fill="none" xmlns="http://www.w3.org/2000/svg">
<path d="M10.9707 95.566H16.4867V97.372H10.9707V95.566ZM14.6527 101.208V98.842H18.3067V92.108H16.4867V94.11H10.9707V92.108H9.13673V98.842H12.8047V101.208H7.90473V102.706H19.5807V101.208H14.6527ZM26.5796 102.86C24.8016 102.86 23.9756 102.622 23.9756 102.09C23.9756 101.558 24.8016 101.334 26.5796 101.334C28.3716 101.334 29.1976 101.558 29.1976 102.09C29.1976 102.622 28.3716 102.86 26.5796 102.86ZM26.5796 99.976C23.7516 99.976 22.1136 100.704 22.1136 102.09C22.1136 103.462 23.7516 104.204 26.5796 104.204C29.4216 104.204 31.0596 103.462 31.0596 102.09C31.0596 100.704 29.4216 99.976 26.5796 99.976ZM27.5176 97.96V97.162H31.1996V95.762H24.0596V95.062H30.8076V93.718H24.0596V93.046H31.1016V91.646H22.2256V97.162H25.6696V97.96H20.7696V99.402H32.4316V97.96H27.5176ZM42.4965 91.296V104.232H44.3445V91.296H42.4965ZM37.4145 92.206C35.4685 92.206 34.0265 93.97 34.0265 96.798C34.0265 99.64 35.4685 101.418 37.4145 101.418C39.3605 101.418 40.8025 99.64 40.8025 96.798C40.8025 93.97 39.3605 92.206 37.4145 92.206ZM37.4145 93.872C38.3665 93.872 39.0245 94.894 39.0245 96.798C39.0245 98.716 38.3665 99.738 37.4145 99.738C36.4625 99.738 35.8045 98.716 35.8045 96.798C35.8045 94.894 36.4625 93.872 37.4145 93.872ZM49.4395 99.85C48.7395 99.85 48.3195 98.884 48.3195 96.896C48.3195 94.922 48.7395 93.956 49.4395 93.956C50.1535 93.956 50.5595 94.922 50.5595 96.896C50.5595 98.884 50.1535 99.85 49.4395 99.85ZM53.2335 96.056H52.2115C52.0015 93.648 50.9655 92.22 49.4395 92.22C47.7315 92.22 46.6535 93.984 46.6535 96.896C46.6535 99.822 47.7315 101.586 49.4395 101.586C51.0075 101.586 52.0575 100.074 52.2255 97.554H53.2335V103.63H54.9555V91.52H53.2335V96.056ZM55.8515 91.296V104.19H57.6015V91.296H55.8515ZM63.8304 98.744C64.2784 98.828 64.7404 98.87 65.2444 98.87C65.7484 98.87 66.2244 98.828 66.6724 98.744V101.208H63.8304V98.744ZM65.2444 93.396C67.0364 93.396 68.2404 94.124 68.2404 95.412C68.2404 96.686 67.0364 97.428 65.2444 97.428C63.4524 97.428 62.2624 96.686 62.2624 95.412C62.2624 94.124 63.4524 93.396 65.2444 93.396ZM68.5064 101.208V98.058C69.4724 97.456 70.0604 96.532 70.0604 95.412C70.0604 93.298 68.0304 91.94 65.2444 91.94C62.4724 91.94 60.4424 93.298 60.4424 95.412C60.4284 96.532 61.0164 97.456 61.9964 98.058V101.208H59.4204V102.706H71.0964V101.208H68.5064Z" fill="#888888"/>
<circle cx="40" cy="40" r="38" stroke="#CCCCCC" stroke-width="4"/>
<ellipse cx="27.1667" cy="35.6667" rx="4.16667" ry="6.66667" fill="#C4C4C4"/>
<ellipse cx="52.4999" cy="35.6667" rx="4.16667" ry="6.66667" fill="#C4C4C4"/>
<path d="M30 51L50 51" stroke="#CCCCCC" stroke-width="4" stroke-linecap="round"/>
</svg>
