<svg width="80" height="106" viewBox="0 0 80 106" fill="none" xmlns="http://www.w3.org/2000/svg">
<path d="M23.7762 94.334V95.286H21.4802V94.334H23.7762ZM19.6742 96.14H17.2242V94.74H19.6742V96.14ZM21.4802 96.686H23.7762V97.932H25.6242V91.324H23.7762V92.934H21.4802V91.842H19.6742V93.354H17.2242V91.842H15.3902V97.582H21.4802V96.686ZM18.9602 102.622V101.866H25.6242V98.422H17.1122V99.85H23.7902V100.536H17.1402V104.05H25.9882V102.622H18.9602ZM34.4711 101.278V99.36H38.3771V97.876H30.9011V96.434H38.0831V92.136H29.0531V93.606H36.2631V94.992H29.0671V99.36H32.6231V101.278H27.7231V102.79H39.3991V101.278H34.4711ZM43.5 99.85C42.8 99.85 42.38 98.884 42.38 96.896C42.38 94.922 42.8 93.956 43.5 93.956C44.214 93.956 44.62 94.922 44.62 96.896C44.62 98.884 44.214 99.85 43.5 99.85ZM47.294 96.056H46.272C46.062 93.648 45.026 92.22 43.5 92.22C41.792 92.22 40.714 93.984 40.714 96.896C40.714 99.822 41.792 101.586 43.5 101.586C45.068 101.586 46.118 100.074 46.286 97.554H47.294V103.63H49.016V91.52H47.294V96.056ZM49.912 91.296V104.19H51.662V91.296H49.912ZM57.8909 98.744C58.3389 98.828 58.8009 98.87 59.3049 98.87C59.8089 98.87 60.2849 98.828 60.7329 98.744V101.208H57.8909V98.744ZM59.3049 93.396C61.0969 93.396 62.3009 94.124 62.3009 95.412C62.3009 96.686 61.0969 97.428 59.3049 97.428C57.5129 97.428 56.3229 96.686 56.3229 95.412C56.3229 94.124 57.5129 93.396 59.3049 93.396ZM62.5669 101.208V98.058C63.5329 97.456 64.1209 96.532 64.1209 95.412C64.1209 93.298 62.0909 91.94 59.3049 91.94C56.5329 91.94 54.5029 93.298 54.5029 95.412C54.4889 96.532 55.0769 97.456 56.0569 98.058V101.208H53.4809V102.706H65.1569V101.208H62.5669Z" fill="#F74F2A"/>
<circle cx="40" cy="40" r="38" stroke="#F74F2A" stroke-width="4"/>
<ellipse cx="27.1667" cy="35.6667" rx="4.16667" ry="6.66667" fill="#F74F2A"/>
<ellipse cx="52.4999" cy="35.6667" rx="4.16667" ry="6.66667" fill="#F74F2A"/>
<path d="M31.7184 53.6426C32.882 52.6343 34.4369 51.8889 36.1449 51.3955C37.8687 50.8975 39.7872 50.6445 41.7156 50.6445C43.6439 50.6445 45.5624 50.8975 47.2863 51.3955C48.9943 51.8889 50.5491 52.6343 51.7127 53.6426" stroke="#F74F2A" stroke-width="4" stroke-linecap="round"/>
</svg>
