<svg width="80" height="106" viewBox="0 0 80 106" fill="none" xmlns="http://www.w3.org/2000/svg">
<path d="M21.8476 95.874C24.3256 95.706 25.9356 94.922 26.6076 93.802C27.2796 94.922 28.9036 95.706 31.3816 95.874L31.9556 94.502C29.6316 94.362 28.3716 93.732 27.9936 93.032H31.3956V91.632H21.8476V93.032H25.2216C24.8436 93.732 23.5836 94.362 21.2736 94.502L21.8476 95.874ZM26.5796 103.028C25.2356 103.028 24.5636 102.888 24.5636 102.552C24.5636 102.202 25.2356 102.062 26.5796 102.062C27.9376 102.062 28.6236 102.202 28.6236 102.552C28.6236 102.888 27.9376 103.028 26.5796 103.028ZM26.5796 100.844C24.1016 100.844 22.6596 101.446 22.6596 102.552C22.6596 103.658 24.1016 104.246 26.5796 104.246C29.0856 104.246 30.5276 103.658 30.5276 102.552C30.5276 101.446 29.0856 100.844 26.5796 100.844ZM27.5176 98.184H25.6696V99.094H21.8336V100.466H31.3676V99.094H27.5176V98.184ZM27.5176 96.336V95.16H25.6696V96.336H20.7836V97.778H32.4736V96.336H27.5176ZM37.1205 99.738C36.1545 99.738 35.5105 98.716 35.5105 96.798C35.5105 94.894 36.1545 93.872 37.1205 93.872C38.0725 93.872 38.7305 94.894 38.7305 96.798C38.7305 98.716 38.0725 99.738 37.1205 99.738ZM37.1205 92.206C35.1605 92.206 33.7325 93.97 33.7325 96.798C33.7325 99.64 35.1605 101.418 37.1205 101.418C39.0665 101.418 40.5085 99.64 40.5085 96.798C40.5085 93.97 39.0665 92.206 37.1205 92.206ZM45.6325 96.168H43.7565V91.31H41.9085V104.204H43.7565V97.694H45.6325V96.168ZM50.9515 98.744C51.3995 98.828 51.8615 98.87 52.3655 98.87C52.8695 98.87 53.3455 98.828 53.7935 98.744V101.208H50.9515V98.744ZM52.3655 93.396C54.1575 93.396 55.3615 94.124 55.3615 95.412C55.3615 96.686 54.1575 97.428 52.3655 97.428C50.5735 97.428 49.3835 96.686 49.3835 95.412C49.3835 94.124 50.5735 93.396 52.3655 93.396ZM55.6275 101.208V98.058C56.5935 97.456 57.1815 96.532 57.1815 95.412C57.1815 93.298 55.1515 91.94 52.3655 91.94C49.5935 91.94 47.5635 93.298 47.5635 95.412C47.5495 96.532 48.1375 97.456 49.1175 98.058V101.208H46.5415V102.706H58.2175V101.208H55.6275Z" fill="#888888"/>
<circle cx="40" cy="40" r="38" stroke="#CCCCCC" stroke-width="4"/>
<ellipse cx="27.1667" cy="35.6667" rx="4.16667" ry="6.66667" fill="#C4C4C4"/>
<ellipse cx="52.4999" cy="35.6667" rx="4.16667" ry="6.66667" fill="#C4C4C4"/>
<path d="M30.9528 52.6503C32.1164 53.6587 33.6712 54.404 35.3793 54.8974C37.1031 55.3954 39.0216 55.6484 40.95 55.6484C42.8783 55.6484 44.7968 55.3954 46.5206 54.8974C48.2287 54.404 49.7835 53.6587 50.9471 52.6503" stroke="#C4C4C4" stroke-width="4" stroke-linecap="round"/>
</svg>
