<svg width="30" height="30" viewBox="0 0 30 30" fill="none" xmlns="http://www.w3.org/2000/svg">
<path d="M12.5 15C12.5 16.3807 13.6193 17.5 15 17.5C16.3807 17.5 17.5 16.3807 17.5 15C17.5 13.6193 16.3807 12.5 15 12.5C13.6193 12.5 12.5 13.6193 12.5 15Z" fill="#CCCCCC"/>
<path d="M12.5 7.5C12.5 8.88071 13.6193 10 15 10C16.3807 10 17.5 8.88071 17.5 7.5C17.5 6.11929 16.3807 5 15 5C13.6193 5 12.5 6.11929 12.5 7.5Z" fill="#CCCCCC"/>
<path d="M12.5 22.5C12.5 23.8807 13.6193 25 15 25C16.3807 25 17.5 23.8807 17.5 22.5C17.5 21.1193 16.3807 20 15 20C13.6193 20 12.5 21.1193 12.5 22.5Z" fill="#CCCCCC"/>
</svg>
