<svg width="37" height="35" viewBox="0 0 37 35" fill="none" xmlns="http://www.w3.org/2000/svg">
<path d="M14.8 25.2778V23.3333H1.8685L1.85 31.1111C1.85 33.2694 3.4965 35 5.55 35H31.45C33.5035 35 35.15 33.2694 35.15 31.1111V23.3333H22.2V25.2778H14.8ZM33.3 7.77778H25.8815V3.88889L22.1815 0H14.7815L11.0815 3.88889V7.77778H3.7C1.665 7.77778 0 9.52778 0 11.6667V17.5C0 19.6583 1.6465 21.3889 3.7 21.3889H14.8V17.5H22.2V21.3889H33.3C35.335 21.3889 37 19.6389 37 17.5V11.6667C37 9.52778 35.335 7.77778 33.3 7.77778ZM22.2 7.77778H14.8V3.88889H22.2V7.77778Z" fill="#F74F2A"/>
</svg>
