<svg width="37" height="27" viewBox="0 0 37 27" fill="none" xmlns="http://www.w3.org/2000/svg">
<path d="M35.9742 20.7938L33.9305 6.43125C33.4055 2.7375 30.2367 0 26.5055 0H9.518C5.78675 0 2.618 2.7375 2.093 6.43125L0.0492493 20.7938C-0.363251 23.6812 1.868 26.25 4.77425 26.25C6.04925 26.25 7.24925 25.7437 8.14925 24.8438L12.3867 20.625H23.6367L27.8555 24.8438C28.7555 25.7437 29.9742 26.25 31.2305 26.25C34.1555 26.25 36.3867 23.6812 35.9742 20.7938ZM16.1367 11.25H12.3867V15H10.5117V11.25H6.76175V9.375H10.5117V5.625H12.3867V9.375H16.1367V11.25ZM23.6367 9.375C22.6055 9.375 21.7617 8.53125 21.7617 7.5C21.7617 6.46875 22.6055 5.625 23.6367 5.625C24.668 5.625 25.5117 6.46875 25.5117 7.5C25.5117 8.53125 24.668 9.375 23.6367 9.375ZM27.3867 15C26.3555 15 25.5117 14.1562 25.5117 13.125C25.5117 12.0938 26.3555 11.25 27.3867 11.25C28.418 11.25 29.2617 12.0938 29.2617 13.125C29.2617 14.1562 28.418 15 27.3867 15Z" fill="#F74F2A"/>
</svg>
