<svg width="30" height="39" viewBox="0 0 30 39" fill="none" xmlns="http://www.w3.org/2000/svg">
<path d="M29.025 20.3513C26.0812 12.7013 15.6 12.2888 18.1313 1.17009C18.3188 0.345087 17.4375 -0.292412 16.725 0.138838C9.91875 4.15134 5.025 12.1951 9.13125 22.7326C9.46875 23.5951 8.45625 24.4013 7.725 23.8388C4.33125 21.2701 3.975 17.5763 4.275 14.9326C4.3875 13.9576 3.1125 13.4888 2.56875 14.2951C1.29375 16.2451 0 19.3951 0 24.1388C0.7125 34.6388 9.58125 37.8638 12.7688 38.2763C17.325 38.8576 22.2563 38.0138 25.8 34.7701C29.7 31.1513 31.125 25.3763 29.025 20.3513ZM11.625 29.7826C14.325 29.1263 15.7125 27.1763 16.0875 25.4513C16.7062 22.7701 14.2875 20.1451 15.9187 15.9076C16.5375 19.4138 22.05 21.6076 22.05 25.4326C22.2 30.1763 17.0625 34.2451 11.625 29.7826Z" fill="#F74F2A"/>
</svg>
