<svg width="38" height="31" viewBox="0 0 38 31" fill="none" xmlns="http://www.w3.org/2000/svg">
<path d="M36.7542 26.6308L20.6291 14.537V12.8308C23.7229 11.912 25.8791 8.76204 25.1854 5.23704C24.6979 2.78079 22.7479 0.737039 20.2916 0.174539C16.0166 -0.800461 12.1916 2.44329 12.1916 6.56829H15.9416C15.9416 5.01204 17.1979 3.75579 18.7541 3.75579C20.3104 3.75579 21.5666 5.01204 21.5666 6.56829C21.5666 8.14329 20.2729 9.41829 18.6979 9.38079C17.6854 9.36204 16.8791 10.2245 16.8791 11.237V14.537L0.754149 26.6308C-0.689601 27.7183 0.0791485 30.0058 1.87915 30.0058H18.7541H35.6292C37.4291 30.0058 38.1979 27.7183 36.7542 26.6308ZM7.50415 26.2558L18.7541 17.8183L30.0041 26.2558H7.50415Z" fill="#F74F2A"/>
</svg>
