<svg width="34" height="34" viewBox="0 0 34 34" fill="none" xmlns="http://www.w3.org/2000/svg">
<path d="M18.75 5.7375V0H15V5.7375C6.5625 6.675 0 13.8187 0 22.4812C0 24.5625 1.6875 26.25 3.76875 26.25H9.375C9.375 30.3937 12.7312 33.75 16.875 33.75C21.0187 33.75 24.375 30.3937 24.375 26.25H29.9812C32.0625 26.25 33.75 24.5625 33.75 22.4812C33.75 13.8187 27.1875 6.675 18.75 5.7375ZM16.875 22.5H3.75C3.75 15.2625 9.6375 9.375 16.875 9.375C24.1125 9.375 30 15.2625 30 22.5H16.875Z" fill="#F74F2A"/>
</svg>
